<svg width="160" height="160" viewBox="0 0 160 160" fill="none" xmlns="http://www.w3.org/2000/svg">
<path fill-rule="evenodd" clip-rule="evenodd" d="M114.193 131.493C113.733 130.811 112.974 130.406 112.276 129.971C110.486 128.856 108.941 127.396 107.417 125.94C104.24 122.905 101.091 119.841 97.9722 116.747C97.1868 115.968 96.3986 115.182 95.7657 114.275C94.3161 112.197 92.4682 110.398 90.3521 109.005C90.0504 108.806 89.7249 108.61 89.3639 108.595C88.9345 108.577 88.5416 108.818 88.1847 109.057C85.4104 110.918 82.9366 113.226 80.8877 115.864C80.6347 116.19 80.3749 116.566 80.4221 116.976C80.457 117.279 80.6546 117.535 80.8458 117.772C83.2493 120.758 85.8374 123.595 88.5904 126.262C89.3377 126.986 90.0992 127.699 90.7616 128.502C91.6768 129.61 92.3881 130.87 93.21 132.049C97.0048 137.493 103.069 141.04 109.428 142.937C110.213 143.171 111.033 143.385 111.843 143.264C113.647 142.995 114.878 140.808 114.171 139.126C113.664 137.922 114.043 136.553 114.366 135.287C114.688 134.022 114.922 132.577 114.193 131.493Z" fill="white"/>
<path fill-rule="evenodd" clip-rule="evenodd" d="M115.392 99.1355C116.051 97.6755 117.602 96.6642 119.203 96.6503C119.984 96.6435 120.749 96.8527 121.503 97.0602C124.814 97.9728 128.126 98.8854 131.438 99.798C132.3 100.035 133.179 100.281 133.922 100.779C134.664 101.277 135.26 102.082 135.271 102.976C135.279 103.562 135.04 104.122 134.774 104.644C134.411 105.357 133.967 106.061 133.3 106.503C131.953 107.398 130.163 106.982 128.608 106.535C124.994 105.493 121.374 104.451 117.861 103.107C116.722 102.671 115.453 102.047 115.162 100.862C115.021 100.288 115.149 99.6748 115.392 99.1355Z" fill="white"/>
<path fill-rule="evenodd" clip-rule="evenodd" d="M70.2443 128.578C71.7243 127.789 73.8067 128.522 74.4664 130.064C74.8986 131.074 74.7548 132.226 74.6034 133.314C74.2003 136.211 73.7972 139.107 73.394 142.004C73.3113 142.598 73.228 143.195 73.0504 143.769C72.7104 144.866 71.9912 145.877 70.9695 146.403C69.9477 146.929 68.6165 146.897 67.7143 146.186C67.0384 145.652 66.6629 144.809 66.5288 143.959C66.3946 143.109 66.4773 142.241 66.5712 141.385C66.8781 138.585 67.3012 135.798 67.8388 133.034C68.1726 131.318 68.7019 129.401 70.2443 128.578Z" fill="white"/>
<path fill-rule="evenodd" clip-rule="evenodd" d="M34.8278 70.9297C34.6627 70.7121 34.945 70.4382 35.1876 70.3125C37.9681 68.8722 40.78 67.4924 43.6205 66.1742C44.3629 65.8297 45.1193 65.4857 45.9283 65.3618C46.7372 65.238 47.6192 65.3603 48.2591 65.8705C49.0174 66.4752 49.3034 67.5036 49.3506 68.4724C49.3895 69.2727 49.2708 70.1364 48.7343 70.7316C48.4878 71.005 48.1701 71.2023 47.8557 71.3937C44.9563 73.1596 41.9508 74.7513 38.8608 76.1576C37.9261 76.583 36.8479 76.9946 35.9047 76.5882C35.5508 76.4357 35.2507 76.1775 34.999 75.8857C33.8321 74.533 33.7571 72.3597 34.8278 70.9297Z" fill="white"/>
<path fill-rule="evenodd" clip-rule="evenodd" d="M62.5725 42.9844C62.399 44.3645 63.0363 45.8168 64.1694 46.6234C64.7044 47.0042 64.9014 47.7317 64.8165 48.3828C64.7315 49.0339 64.4123 49.6282 64.0864 50.1982C63.842 50.6257 63.5791 51.062 63.1784 51.3481C62.7776 51.6343 62.2007 51.732 61.7967 51.4504C60.2467 50.3704 58.1466 50.7924 56.3155 51.2576C55.7086 51.4118 55.1182 50.9953 54.6299 50.6032C54.0101 50.1057 53.3903 49.6081 52.7705 49.1106C52.548 48.9319 52.3191 48.7457 52.1886 48.4919C52.0267 48.1772 52.0387 47.8034 52.0788 47.4517C52.2794 45.6913 53.0744 44.0573 53.9404 42.5115C54.835 40.9147 56.0863 39.1972 57.9116 39.0618C58.3877 39.0265 58.9143 39.1326 59.2158 39.5027C59.7512 40.1598 60.5777 40.4895 61.2916 40.9464C62.0055 41.4034 62.6783 42.1434 62.5725 42.9844Z" fill="white"/>
<path fill-rule="evenodd" clip-rule="evenodd" d="M51.8172 46.8344C51.2794 47.3106 50.5001 47.4369 49.7903 47.3267C49.0805 47.2166 48.4222 46.8974 47.7834 46.5689C44.4258 44.8417 41.2612 42.7395 38.3675 40.3139C38.1454 40.1277 37.9208 39.9349 37.7732 39.6855C37.5998 39.3926 37.5467 39.0453 37.5132 38.7065C37.156 35.0924 38.8007 31.344 41.702 29.1595C42.8851 28.2688 44.5752 27.643 45.8004 28.475C48.5965 30.3736 51.3357 32.356 54.0132 34.4187C55.1836 35.3203 56.3678 36.2658 57.1316 37.5305C57.3941 37.9652 57.5831 38.5757 57.2275 38.9383C56.7857 37.5684 50.0175 46.9544 51.8172 46.8344Z" fill="white"/>
<path fill-rule="evenodd" clip-rule="evenodd" d="M31.782 135.855C30.3061 136.39 28.3156 135.776 27.9157 134.258C27.247 131.72 30.9326 130.423 32.3095 128.189C33.9437 125.537 31.9847 122.188 30.0599 119.739C28.694 120.881 26.7045 122.055 25.2978 120.964C23.5943 119.643 25.0277 116.881 26.7649 115.604C29.8806 113.315 33.8651 112.239 37.7096 112.651C38.6883 105.361 42.433 98.477 48.021 93.6947C53.609 88.9124 60.9888 86.276 68.3421 86.4349C67.5201 72.1774 75.7862 57.7989 88.5208 51.335C89.9032 50.6333 91.3832 50.007 92.9335 50.0163C94.4837 50.0256 96.1205 50.8147 96.7088 52.249C97.2971 53.6833 96.3849 55.6517 94.8402 55.7827C94.1207 55.8437 87.8783 58.0661 88.5208 57.9256C96.7088 56.1351 116.307 70.418 126.859 70.418C127.806 70.418 130.265 66.9249 130.931 66.4579C131.543 66.0291 133.228 65.7863 133.965 65.9129C135.885 66.2429 135.75 69.078 134.924 70.8425C129.999 81.3667 118.963 87.9891 107.619 90.5044C96.2744 93.0197 84.483 92.0255 72.9069 91.0186C72.106 99.2977 70.9747 108.301 65.0513 114.141C59.4198 119.692 50.5123 120.913 42.8885 118.812C42.8885 117.668 42.8885 117.668 42.9537 114.535C41.6313 121.039 38.9727 127.267 35.1913 132.722C34.297 134.011 33.2579 135.321 31.782 135.855Z" fill="white"/>
<path d="M111.703 34.9999C111.235 35.6095 110.767 36.2192 110.299 36.8289C110.046 37.158 109.551 37.5038 109.282 37.1878C108.811 36.6347 107.94 36.7906 107.229 36.6434C106.768 36.5481 106.351 36.3105 105.943 36.0764C100.042 32.6914 94.1414 29.3065 88.2406 25.9215C87.7743 25.6541 87.2693 25.3396 87.1147 24.8248C88.4619 22.4669 90.7361 19.2188 90.866 19.2973C92.2813 20.3171 93.7222 21.3015 95.1868 22.2492C99.8333 25.2556 104.71 27.8873 109.454 30.7369C109.916 31.0142 110.422 31.3583 110.508 31.8899C110.574 32.2993 110.274 33.3131 110.558 33.1168C110.71 33.0111 110.917 33.1061 111.076 33.2013C111.558 33.4893 112.111 33.9277 111.994 34.4766C111.952 34.6735 111.826 34.8402 111.703 34.9999Z" fill="white"/>
<path fill-rule="evenodd" clip-rule="evenodd" d="M87.1919 58.5084C87.5266 58.4535 87.8291 58.2296 87.9794 57.9255C90.4688 58.1715 92.9366 58.6367 95.3447 59.314C100.795 60.8469 105.881 63.4449 110.829 66.1964C115.896 69.0146 121.59 70.6997 127.375 71.0936C127.419 71.4098 127.152 71.7021 126.849 71.8003C126.545 71.8985 126.216 71.8508 125.9 71.8023C121.104 71.064 116.158 70.272 112.042 67.7018C107.841 65.0791 103.38 62.875 98.7443 61.1329C97.5486 60.6835 96.3408 60.2646 95.1141 59.9083C92.5339 59.1589 89.8727 58.6887 87.1919 58.5084Z" fill="#00160A"/>
<path fill-rule="evenodd" clip-rule="evenodd" d="M115.392 99.1352C116.051 97.6752 117.602 96.664 119.203 96.6501C119.984 96.6433 120.749 96.8524 121.503 97.0599C124.814 97.9725 128.126 98.8851 131.438 99.7977C132.3 100.035 133.179 100.28 133.922 100.779C134.664 101.277 135.26 102.081 135.271 102.975C135.279 103.562 135.04 104.122 134.774 104.644C134.411 105.357 133.967 106.06 133.3 106.503C131.953 107.398 130.163 106.982 128.608 106.534C124.994 105.493 121.374 104.451 117.861 103.107C116.722 102.671 115.453 102.046 115.162 100.862C115.021 100.288 115.149 99.6745 115.392 99.1352ZM123.883 103.176C123.785 103.854 123.925 104.755 124.597 104.89C126.229 105.218 127.846 105.623 129.44 106.103C130.458 106.41 131.571 106.745 132.552 106.337C133.289 106.03 133.801 105.357 134.236 104.689C134.732 103.927 135.183 102.945 134.741 102.15C134.446 101.62 133.839 101.356 133.272 101.139C131.096 100.305 128.865 99.6162 126.598 99.0785C125.923 98.9185 125.324 99.534 124.967 100.129C124.41 101.06 124.039 102.102 123.883 103.176Z" fill="#00160A"/>
<path fill-rule="evenodd" clip-rule="evenodd" d="M54.5843 35.6447C54.4165 35.5463 54.2352 35.454 54.0407 35.4524C53.8312 35.4507 53.6368 35.5543 53.4553 35.6592C49.9677 37.6763 47.449 41.2925 46.7662 45.2631C48.1802 46.3829 50.0175 46.9544 51.8172 46.8344C51.2794 47.3106 50.5001 47.4369 49.7903 47.3267C49.0805 47.2166 48.4222 46.8974 47.7834 46.5689C44.4258 44.8417 41.2612 42.7395 38.3675 40.3139C38.1454 40.1277 37.9208 39.9349 37.7732 39.6855C37.5998 39.3926 37.5467 39.0453 37.5132 38.7065C37.156 35.0924 38.8007 31.344 41.702 29.1595C42.8851 28.2688 44.5752 27.643 45.8004 28.475C48.5965 30.3736 51.3357 32.356 54.0132 34.4187C55.1836 35.3203 56.3678 36.2658 57.1316 37.5305C57.3941 37.9652 57.5831 38.5757 57.2275 38.9383C56.7857 37.5684 55.8259 36.3726 54.5843 35.6447ZM39.7463 31.8974C39.3484 32.4234 38.9546 32.9618 38.6991 33.5699C38.4074 34.2642 38.3072 35.0215 38.2099 35.7683C38.0343 37.1152 37.9001 38.6255 38.7376 39.6949C39.0373 40.0776 39.438 40.3663 39.833 40.6496C41.5981 41.9157 43.3632 43.1817 45.1282 44.4478C45.3392 44.5991 45.5616 44.7552 45.819 44.7895C46.0764 44.8238 46.3761 44.6909 46.4365 44.4383C47.3554 40.5923 49.9062 37.1644 53.3262 35.1795C53.5448 35.0526 53.3608 34.7206 53.1679 34.5572C51.4471 33.0997 49.6191 31.7687 47.7036 30.5784C47.5967 30.512 47.4838 30.4441 47.3582 30.4362C47.1962 30.4261 47.047 30.5168 46.9107 30.6051C45.2264 31.6956 43.6084 32.9344 42.3649 34.5092C41.1214 36.0839 40.2705 38.0288 40.2815 40.0353C40.1913 40.1969 39.9671 39.9781 39.9373 39.7955C39.6943 38.3089 40.3234 36.8158 41.1155 35.5346C42.4919 33.3084 44.4113 31.4206 46.6601 30.0813C45.9891 28.8193 44.2097 28.5144 42.8875 29.0575C41.5654 29.6005 40.6085 30.7574 39.7463 31.8974V31.8974Z" fill="#00160A"/>
<path fill-rule="evenodd" clip-rule="evenodd" d="M74.4659 130.064C74.8981 131.074 74.7544 132.226 74.6029 133.314L73.3935 142.004C73.3108 142.598 73.2275 143.195 73.0499 143.768C72.7099 144.866 71.9907 145.877 70.969 146.403C69.9472 146.928 68.616 146.897 67.7138 146.185C67.038 145.652 66.6625 144.809 66.5283 143.959C66.3941 143.109 66.4769 142.24 66.5707 141.385C66.8776 138.585 67.3007 135.798 67.8384 133.034L67.873 132.859C68.2091 131.189 68.7537 129.373 70.2438 128.578C71.7238 127.789 73.8062 128.522 74.4659 130.064ZM68.0712 137.645L68.0714 137.641C67.9699 137.693 67.8655 137.75 67.7582 137.811C67.6366 138.578 67.5286 139.348 67.4403 140.12C67.3202 141.171 67.2368 142.226 67.2069 143.284L67.2037 143.426C67.1986 143.783 67.22 144.148 67.3928 144.457C67.6549 144.926 68.2007 145.153 68.7209 145.286C69.551 145.498 70.488 145.538 71.2095 145.076C72.0809 144.518 72.3917 143.409 72.5882 142.393C72.7695 141.456 72.9118 140.512 73.0146 139.563L73.0275 139.436C73.0552 139.138 73.06 138.832 72.9278 138.567C72.8061 138.324 72.5829 138.149 72.3539 138.002C72.2806 137.955 72.2058 137.91 72.1299 137.868C71.543 137.66 71.543 137.339 70.3583 137.312C69.5814 137.295 68.7882 137.339 68.0712 137.645Z" fill="#00160A"/>
<path fill-rule="evenodd" clip-rule="evenodd" d="M34.8278 70.9297C34.6627 70.7121 34.945 70.4382 35.1876 70.3125C37.9681 68.8722 40.78 67.4924 43.6205 66.1742C44.3629 65.8297 45.1193 65.4857 45.9283 65.3618C46.7372 65.238 47.6192 65.3603 48.2591 65.8705C49.0174 66.4752 49.3034 67.5036 49.3506 68.4724C49.3895 69.2727 49.2708 70.1364 48.7343 70.7316C48.4878 71.005 48.1701 71.2023 47.8557 71.3937C44.9563 73.1596 41.9508 74.7513 38.8608 76.1576C37.9261 76.583 36.8479 76.9946 35.9047 76.5882C35.5508 76.4357 35.2507 76.1775 34.999 75.8857C33.8321 74.533 33.7571 72.3597 34.8278 70.9297ZM48.5108 67.0917C48.3024 66.5179 47.7583 66.1065 47.1668 65.9557C46.5753 65.8048 45.9442 65.8877 45.3643 66.0783C44.9284 66.2216 44.5147 66.4237 44.1025 66.6251C43.3892 66.9737 42.6758 67.3223 41.9625 67.6709C41.7444 67.7776 41.5169 67.8919 41.3769 68.0903C41.2777 68.2309 41.2318 68.4012 41.1877 68.5675C41.0169 69.2119 40.8448 69.8816 40.9624 70.5378C41.1364 71.508 41.8989 72.2491 42.6215 72.9195C42.7585 73.0466 42.9048 73.1788 43.0874 73.2189C43.3299 73.2722 43.5732 73.1517 43.7923 73.0349C44.812 72.4915 45.8317 71.9481 46.8513 71.4047C47.6371 70.9859 48.4839 70.5003 48.8007 69.6682C49.1153 68.842 48.8126 67.9226 48.5108 67.0917Z" fill="#00160A"/>
<path fill-rule="evenodd" clip-rule="evenodd" d="M82.6665 15.14C82.7717 14.9832 82.9887 14.9344 83.1733 14.974C83.3579 15.0136 83.5183 15.1238 83.6733 15.2317C84.7662 15.9924 85.859 16.753 86.9519 17.5137C87.1348 17.641 87.333 17.7915 87.3699 18.0112C87.29 18.1897 87.0208 18.1051 86.8592 17.995C85.4616 17.0434 84.0641 16.0917 82.6665 15.14Z" fill="#00160A"/>
<path fill-rule="evenodd" clip-rule="evenodd" d="M96.2539 26.8015C96.0869 26.779 96.1303 26.5242 96.2197 26.3813C96.5543 25.847 96.8889 25.3127 97.2235 24.7783C97.3408 24.8002 97.3253 24.9734 97.2769 25.0825C97.0062 25.6936 96.6619 26.2721 96.2539 26.8015Z" fill="#00160A"/>
<path fill-rule="evenodd" clip-rule="evenodd" d="M80.685 115.438C82.7084 113.097 84.981 110.972 87.452 109.11C88.0233 108.679 88.6464 108.247 89.3601 108.198C90.4929 108.12 91.4358 109.006 92.2204 109.827C94.2849 111.987 96.3495 114.147 98.414 116.307C100.849 118.855 103.285 121.404 105.842 123.83C108.58 126.428 111.466 128.891 114.647 130.923C115.622 131.545 115.697 132.958 115.382 134.07C115.067 135.183 114.47 136.246 114.481 137.402C114.485 137.892 114.599 138.372 114.674 138.856C114.892 140.26 114.75 141.783 113.941 142.95C113.131 144.117 111.543 144.802 110.223 144.277C105.09 142.236 99.8172 140.106 95.8368 136.276C94.848 135.324 93.9536 134.28 93.0609 133.238C88.8661 128.341 84.6713 123.444 80.4766 118.547C80.2019 118.227 79.9178 117.888 79.8288 117.475C79.6677 116.727 80.1847 116.016 80.685 115.438M114.192 131.493C113.733 130.81 112.974 130.406 112.276 129.971C110.486 128.856 108.941 127.396 107.416 125.939C104.24 122.905 101.091 119.841 97.9721 116.747C97.1866 115.968 96.3985 115.182 95.7656 114.275C94.316 112.197 92.468 110.398 90.352 109.004C90.0503 108.806 89.7247 108.609 89.3638 108.594C88.9344 108.577 88.5415 108.818 88.1845 109.057C85.4103 110.918 82.9364 113.226 80.8876 115.864C80.6345 116.19 80.3748 116.566 80.422 116.976C80.4568 117.279 80.6544 117.534 80.8457 117.772C83.2492 120.758 85.8373 123.595 88.5903 126.262C89.3376 126.986 90.0991 127.699 90.7615 128.501C91.6767 129.61 92.3879 130.87 93.2099 132.049C97.0046 137.493 103.069 141.04 109.428 142.937C110.213 143.171 111.033 143.384 111.843 143.264C113.647 142.995 114.878 140.808 114.17 139.126C113.664 137.922 114.043 136.552 114.366 135.287C114.688 134.021 114.921 132.577 114.192 131.493Z" fill="#00160A"/>
<path fill-rule="evenodd" clip-rule="evenodd" d="M93.6016 22.8686C93.3666 23.3056 93.1316 23.7427 92.8966 24.1798C92.8047 23.5481 93.2237 22.9676 93.6195 22.4668C93.7315 22.5602 93.6707 22.7401 93.6016 22.8686L93.6016 22.8686Z" fill="#00160A"/>
<path fill-rule="evenodd" clip-rule="evenodd" d="M94.8935 24.3306C94.9425 24.788 94.7438 25.2646 94.3843 25.5518C94.3432 25.0948 94.5399 24.623 94.8935 24.3306L94.8935 24.3306Z" fill="#00160A"/>
<path fill-rule="evenodd" clip-rule="evenodd" d="M100.957 27.0999C100.881 27.5766 100.64 28.0255 100.285 28.352C100.138 28.4868 99.9696 28.6024 99.7803 28.6647C99.7067 28.5703 99.7881 28.4367 99.8669 28.3465C100.23 27.931 100.593 27.5154 100.957 27.0999Z" fill="#00160A"/>
<path fill-rule="evenodd" clip-rule="evenodd" d="M98.2667 27.2579C98.3286 27.0508 98.4375 26.8579 98.5827 26.6979C98.7287 26.6761 98.7132 26.9184 98.6312 27.0411C98.4995 27.2383 98.3677 27.4354 98.2359 27.6326C98.0952 27.5623 98.096 27.3213 98.2372 27.2519L98.2667 27.2579Z" fill="#00160A"/>
<path fill-rule="evenodd" clip-rule="evenodd" d="M104.851 29.6872C104.754 29.9278 104.536 30.1155 104.283 30.1749C104.477 29.8654 104.67 29.5559 104.864 29.2463C104.953 29.3762 104.948 29.5636 104.851 29.6882L104.851 29.6872Z" fill="#00160A"/>
<path fill-rule="evenodd" clip-rule="evenodd" d="M107.644 31.6986C107.677 31.579 107.815 31.4995 107.935 31.5312C107.852 31.7696 107.733 31.9957 107.584 32.1996C107.439 32.0724 107.467 31.8028 107.634 31.707L107.644 31.6986Z" fill="#00160A"/>
<path fill-rule="evenodd" clip-rule="evenodd" d="M62.5725 42.9844C62.399 44.3645 63.0363 45.8168 64.1694 46.6234C64.7044 47.0042 64.9014 47.7317 64.8165 48.3828C64.7315 49.0339 64.4123 49.6282 64.0864 50.1982C63.842 50.6257 63.5791 51.062 63.1784 51.3481C62.7776 51.6343 62.2007 51.732 61.7967 51.4504C60.2467 50.3704 58.1466 50.7924 56.3155 51.2576C55.7086 51.4118 55.1182 50.9953 54.6299 50.6032C54.0101 50.1057 53.3903 49.6081 52.7705 49.1106C52.548 48.9319 52.3191 48.7457 52.1886 48.4919C52.0267 48.1772 52.0387 47.8034 52.0788 47.4517C52.2794 45.6913 53.0744 44.0573 53.9404 42.5115C54.835 40.9147 56.0863 39.1972 57.9116 39.0618C58.3877 39.0265 58.9143 39.1326 59.2158 39.5027C59.7512 40.1598 60.5777 40.4895 61.2916 40.9464C62.0055 41.4034 62.6783 42.1434 62.5725 42.9844ZM55.123 42.8569C54.9763 42.779 54.8067 42.699 54.6506 42.756C54.5486 42.7932 54.4757 42.882 54.4094 42.968C53.604 44.0128 53.0091 45.2192 52.6706 46.4942C52.5651 46.8916 52.4861 47.3231 52.6363 47.7058C52.755 48.0084 53.0015 48.2396 53.2404 48.46C53.7794 48.9571 54.3184 49.4542 54.8573 49.9514C55.2284 50.2936 55.6878 50.6618 56.1803 50.5511C57.9682 50.1492 59.9234 49.7646 61.5653 50.5786C62.2447 50.9155 63.1037 50.559 63.5785 49.9678C64.0534 49.3765 64.2358 48.6095 64.4051 47.8704C63.0763 46.8601 62.0677 45.435 61.5569 43.8459C61.4855 43.6239 61.1486 43.7626 60.9883 43.9321C60.0954 44.8767 59.2024 45.8213 58.3094 46.7659C57.7173 47.3923 57.0791 48.1683 57.2564 49.0119C57.3048 49.2424 56.9128 49.3414 56.7622 49.1603C56.6116 48.9791 56.6544 48.7098 56.7228 48.4844C57.3598 46.3847 59.3576 45.0568 60.8063 43.4087C61.089 43.087 61.3682 42.7029 61.3319 42.2762C61.2937 41.8279 60.9231 41.4902 60.5779 41.2016C59.9116 40.6447 59.2117 40.0755 58.3694 39.8643C57.5271 39.6531 56.5007 39.9109 56.0946 40.6784C57.3843 41.2735 58.6326 41.9584 59.8274 42.7265C59.9967 42.8354 60.1723 43.0881 60.0044 43.1992C58.9877 42.632 57.9709 42.0647 56.9542 41.4975C56.6377 41.3209 56.3099 41.1407 55.9494 41.1034C55.589 41.0662 55.1839 41.2097 55.0244 41.5351C54.8191 41.9537 55.1075 42.4684 55.4995 42.7209C55.8915 42.9734 56.3667 43.0544 56.7984 43.2306C57.4305 43.4884 57.9728 43.9608 58.3149 44.5516C57.2509 43.9867 56.187 43.4218 55.123 42.8569Z" fill="#00160A"/>
<path fill-rule="evenodd" clip-rule="evenodd" d="M105.73 31.6541C105.689 31.7974 105.569 31.9155 105.425 31.954C105.476 31.5433 105.717 31.1601 106.066 30.9373C106.074 31.2046 105.934 31.4717 105.709 31.6164L105.73 31.6541Z" fill="#00160A"/>
<path fill-rule="evenodd" clip-rule="evenodd" d="M102.356 29.5222C102.292 29.6652 102.147 29.7685 101.991 29.7818C102.026 29.516 102.134 29.2602 102.301 29.0501C102.366 28.9678 102.449 28.8878 102.553 28.8762C102.657 28.8646 102.774 28.959 102.747 29.0603C102.611 29.2072 102.476 29.3542 102.34 29.5012L102.356 29.5222Z" fill="#00160A"/>
<path fill-rule="evenodd" clip-rule="evenodd" d="M80.6494 63.7698C80.6769 63.8454 80.5456 63.9105 80.502 63.8429C80.4764 63.7721 80.4953 63.6873 80.5485 63.634C80.5877 63.6733 80.6269 63.7125 80.6661 63.7517L80.6494 63.7698Z" fill="#00160A"/>
<path fill-rule="evenodd" clip-rule="evenodd" d="M111.888 36.9176C112.089 36.7893 112.294 36.656 112.43 36.4606C112.566 36.2652 112.617 35.99 112.488 35.7899C112.242 35.758 112.014 35.6098 111.885 35.3982C111.879 35.2714 112.008 35.1567 112.133 35.1772C112.375 35.283 112.627 35.3963 112.791 35.6033C112.956 35.8102 112.996 36.141 112.808 36.3259C114.641 37.5867 116.475 38.8474 118.308 40.1081C118.198 40.189 118.044 40.1377 117.919 40.0811C116.281 39.3373 114.903 38.1368 113.405 37.1402C113.058 36.9089 112.538 36.709 112.275 37.0324C111.921 37.4655 111.099 37.3175 110.919 36.7885C110.886 36.5909 111.219 36.5798 111.372 36.709C111.525 36.8383 111.719 37.0256 111.888 36.9176Z" fill="#00160A"/>
<path fill-rule="evenodd" clip-rule="evenodd" d="M108.708 131.461C109.036 131.034 109.374 130.614 109.72 130.201C109.821 130.079 109.926 129.957 110.059 129.87C110.565 129.539 111.236 129.838 111.742 130.17C112.3 130.536 112.832 130.942 113.332 131.383C113.747 131.748 114.159 132.171 114.272 132.712C114.385 133.253 114.06 133.917 113.509 133.965C113.172 134.577 112.69 135.109 112.114 135.506C111.788 135.731 111.341 135.593 110.986 135.415C109.969 134.906 109.091 134.123 108.47 133.17C108.371 133.019 108.277 132.858 108.241 132.68C108.152 132.24 108.435 131.818 108.708 131.461ZM112.042 135.254C112.345 134.823 112.648 134.392 112.95 133.962C112.659 133.617 112.128 133.616 111.746 133.375C111.538 133.243 111.382 133.044 111.231 132.848C110.789 132.277 110.346 131.705 109.904 131.133C109.535 131.518 109.193 131.929 108.88 132.362C108.834 132.425 108.787 132.492 108.779 132.57C108.77 132.658 108.813 132.743 108.856 132.821C109.525 134.021 110.708 134.924 112.042 135.254ZM111.479 130.459C111.196 130.264 110.758 130.091 110.559 130.371C110.438 130.541 110.5 130.777 110.581 130.969C111.025 132.036 111.889 132.922 112.945 133.392C113.248 133.527 113.709 133.564 113.812 133.249C113.85 133.132 113.818 133.005 113.778 132.888C113.407 131.816 112.415 131.101 111.479 130.459Z" fill="#00160A"/>
<path fill-rule="evenodd" clip-rule="evenodd" d="M85.4245 116.378C85.2456 116.638 85.0667 116.897 84.8878 117.156C84.7182 117.402 84.5428 117.663 84.5208 117.961C84.501 118.227 84.6073 118.485 84.7251 118.725C85.2433 119.777 86.0339 120.694 86.9986 121.361C86.7329 121.689 86.2014 121.497 85.8645 121.243C84.9739 120.57 84.3025 119.612 83.9746 118.546C83.8945 118.285 83.8339 118.012 83.8636 117.741C83.9255 117.177 84.356 116.733 84.7624 116.336C85.2552 115.855 85.8255 115.342 86.5139 115.352C86.9664 115.358 87.383 115.597 87.7437 115.87C88.7843 116.658 89.5774 117.942 89.3465 119.227C89.2897 119.543 89.0527 119.916 88.7442 119.828C87.6223 119.508 86.6261 118.766 85.9981 117.783C85.8659 117.576 85.7393 117.349 85.5244 117.23C85.518 116.944 85.4845 116.658 85.4245 116.378ZM86.4805 116.219C86.1881 116.403 86.1533 116.827 86.2641 117.154C86.5615 118.033 87.5463 118.452 88.1528 119.154C88.2314 119.245 88.3116 119.346 88.4272 119.379C88.6027 119.429 88.7874 119.289 88.8507 119.118C88.914 118.947 88.8867 118.757 88.8526 118.578C88.7543 118.062 88.6028 117.547 88.32 117.105C88.0373 116.662 87.6104 116.294 87.101 116.166C86.894 116.113 86.6612 116.105 86.4805 116.219Z" fill="#00160A"/>
<path fill-rule="evenodd" clip-rule="evenodd" d="M106.245 124.746C106.452 124.847 106.561 125.073 106.656 125.282C106.798 125.598 106.94 125.914 107.082 126.23C107.141 126.362 107.201 126.498 107.207 126.643C107.215 126.859 107.103 127.099 107.225 127.278C106.654 127.73 106.119 128.226 105.624 128.76C105.489 128.906 105.351 129.059 105.166 129.131C104.82 129.267 104.436 129.078 104.132 128.865C103.418 128.362 102.828 127.682 102.432 126.904C102.23 126.507 102.107 125.955 102.449 125.671C102.56 125.579 102.595 125.428 102.636 125.29C102.826 124.648 103.269 124.084 103.847 123.748C103.931 123.699 104.021 123.654 104.118 123.65C104.203 123.647 104.285 123.675 104.364 123.703C104.787 123.853 105.21 124.003 105.634 124.153C105.811 124.216 106.025 124.335 105.999 124.521C105.982 124.64 106.137 124.694 106.245 124.746M103.059 125.111C102.861 125.533 102.662 126 102.779 126.452C102.824 126.628 102.915 126.788 103.015 126.94C103.38 127.493 103.878 127.957 104.456 128.282C104.827 128.491 105.326 128.631 105.655 128.359C105.907 128.15 105.989 127.744 106.299 127.636C106.463 127.579 106.473 127.329 106.36 127.197C106.248 127.064 106.068 127.014 105.904 126.957C104.987 126.637 104.247 125.849 103.986 124.913C103.963 124.83 103.942 124.742 103.886 124.675C103.767 124.531 103.528 124.545 103.376 124.655C103.224 124.764 103.138 124.941 103.059 125.111M106.651 126.632C106.892 126.178 106.514 125.654 106.161 125.281C105.945 125.053 105.73 124.825 105.515 124.597C105.351 124.424 105.176 124.244 104.947 124.182C104.717 124.12 104.424 124.231 104.378 124.464C104.359 124.565 104.388 124.668 104.422 124.765C104.757 125.726 105.646 126.471 106.651 126.632Z" fill="#00160A"/>
<path fill-rule="evenodd" clip-rule="evenodd" d="M101.638 129.87C102.382 129.999 102.953 130.579 103.47 131.129C103.679 131.35 103.889 131.575 104.033 131.843C104.371 132.477 104.279 133.272 103.968 133.92C103.658 134.568 103.155 135.101 102.66 135.623C102.367 135.932 102.007 136.267 101.585 136.216C101.427 136.197 101.282 136.125 101.144 136.049C99.9062 135.368 98.914 134.252 98.383 132.943C98.3132 132.771 98.2501 132.587 98.2767 132.404C98.3029 132.223 98.4117 132.068 98.5174 131.919C98.8997 131.383 99.2891 130.839 99.805 130.43C100.321 130.021 100.99 129.757 101.638 129.87M99.173 132.152C98.9765 132.352 98.7464 132.565 98.7369 132.845C98.7325 132.972 98.7758 133.095 98.8256 133.211C99.2891 134.295 100.314 135.014 101.29 135.675C101.354 135.718 101.421 135.763 101.498 135.768C101.583 135.773 101.663 135.729 101.734 135.683C102.087 135.454 102.378 135.142 102.664 134.833C102.807 134.679 102.958 134.511 102.988 134.302C103.019 134.094 102.865 133.846 102.655 133.865C102.215 133.905 101.791 133.679 101.458 133.388C100.873 132.877 100.488 132.142 100.402 131.37C100.372 131.103 100.365 130.806 100.178 130.615C99.9492 131.187 99.6054 131.713 99.173 132.152ZM101.445 130.511C101.259 130.497 101.06 130.526 100.919 130.647C100.596 130.926 100.771 131.456 101.007 131.812C101.366 132.352 101.815 132.832 102.329 133.226C102.524 133.375 102.735 133.516 102.975 133.567C103.215 133.619 103.491 133.565 103.65 133.378C103.81 133.19 103.818 132.91 103.738 132.677C103.657 132.444 103.502 132.245 103.354 132.048C102.848 131.371 102.287 130.576 101.445 130.511L101.445 130.511Z" fill="#00160A"/>
<path fill-rule="evenodd" clip-rule="evenodd" d="M94.4275 128.989C94.1516 129.2 93.766 129.225 93.4332 129.126C93.1005 129.026 92.812 128.816 92.549 128.589C91.9084 128.037 91.3762 127.359 90.9914 126.605C90.7863 126.204 90.6197 125.763 90.6526 125.314C90.7017 124.641 91.1796 124.084 91.6622 123.613C91.8888 123.392 92.1374 123.169 92.4464 123.099C92.7478 123.031 93.062 123.12 93.349 123.234C94.8035 123.815 95.9498 125.115 96.3435 126.631C96.1285 127.644 95.2499 128.359 94.4275 128.989ZM93.3106 128.344C93.6238 128.53 93.9982 128.688 94.3432 128.572C94.6846 128.457 94.888 128.109 95.0163 127.773C94.6208 127.309 94.0268 127.068 93.5673 126.668C92.7507 125.958 92.4448 124.841 92.1794 123.791C91.7297 124.165 91.3707 124.646 91.1419 125.184C91.0761 125.339 91.0201 125.504 91.038 125.671C91.0508 125.791 91.1011 125.904 91.1543 126.012C91.6273 126.976 92.3866 127.797 93.3106 128.344ZM92.5461 124.202C92.5285 124.367 92.6097 124.524 92.6928 124.667C93.1977 125.534 93.8717 126.303 94.6658 126.917C94.9081 127.105 95.2413 127.282 95.5021 127.122C95.6576 127.026 95.7292 126.835 95.7445 126.653C95.7858 126.163 95.5028 125.71 95.2133 125.313C94.7818 124.722 94.281 124.139 93.6031 123.862C93.4037 123.781 93.1835 123.728 92.9733 123.774C92.7631 123.821 92.5689 123.988 92.5461 124.202V124.202Z" fill="#00160A"/>
<path fill-rule="evenodd" clip-rule="evenodd" d="M78.6482 17.2871C78.3482 17.6825 78.0996 18.3544 78.5425 18.5784C78.8898 18.7541 79.2656 18.4132 79.5059 18.107C80.4485 16.9062 81.3911 15.7054 82.3337 14.5046C82.5637 14.9142 82.3004 15.4156 82.0435 15.809C81.3308 16.9004 80.5769 18.0316 79.4473 18.6822C81.3928 19.6393 83.2482 20.7794 84.9811 22.0825C85.7226 21.8014 86.3385 21.2046 86.6427 20.4722C86.4318 20.6734 86.0877 20.5221 85.8433 20.3634C84.3034 19.3635 82.7956 18.3141 81.3231 17.2173C81.4268 16.9376 81.8474 17.0589 82.0937 17.2273C83.4582 18.1603 84.8227 19.0933 86.1872 20.0264C86.5206 20.2544 86.9331 19.8851 87.1662 19.5551C87.6776 18.831 88.1891 18.1069 88.7005 17.3828C88.8884 17.1168 89.0935 16.8369 89.3971 16.7189C89.9154 16.5174 90.4722 16.8606 90.9221 17.1873C91.0541 17.2831 91.1926 17.3873 91.2514 17.5394C91.3531 17.8024 91.1803 18.085 91.0156 18.3139C89.4132 20.5416 87.8109 22.7692 86.2086 24.9969C86.1358 25.0981 86.0597 25.2024 85.9514 25.2642C85.6748 25.4223 85.3261 25.2408 85.0956 25.0208C84.7699 24.7097 84.2773 24.1911 84.5642 23.6695C84.8511 23.148 84.8631 23.1245 85.1044 22.7267C83.071 21.1824 80.952 19.5974 78.459 19.0459C78.0342 18.952 77.8031 18.4534 77.8535 18.0213C77.904 17.5891 78.1594 17.2122 78.4072 16.8547C78.9959 16.0054 79.5845 15.1561 80.1731 14.3069C80.3245 14.0885 80.4794 13.8664 80.6898 13.7041C81.0728 13.409 81.6271 13.3555 82.0594 13.5721C82.4917 13.7888 82.7807 14.2646 82.7736 14.7482C82.5127 14.493 82.2408 14.2307 81.898 14.1054C81.5552 13.9802 81.1197 14.0308 80.899 14.3215C80.1488 15.31 79.3985 16.2986 78.6482 17.2871ZM84.7838 23.8449C84.7838 24.292 85.1304 24.5355 85.3939 24.6372C85.6574 24.739 85.9985 24.6985 86.1623 24.4684C87.6073 22.4382 89.0523 20.4079 90.4973 18.3777C90.5603 18.2891 90.6246 18.198 90.6523 18.0929C90.7117 17.868 90.5861 17.6269 90.404 17.4821C90.222 17.3373 89.9927 17.2684 89.7695 17.2027C89.6689 17.1731 89.5577 17.1441 89.4625 17.1879C89.3982 17.2175 89.3525 17.2758 89.3095 17.332C88.1009 18.91 86.9482 20.5308 85.8544 22.1904C85.8113 22.1066 85.0784 23.1668 84.7838 23.8449Z" fill="#00160A"/>
<path fill-rule="evenodd" clip-rule="evenodd" d="M63.2655 47.8425C63.2178 48.1526 62.9621 48.38 62.759 48.6191C62.3142 49.1425 62.0812 49.8086 61.8575 50.4581C61.5944 50.1715 61.5522 49.7344 61.6524 49.3585C61.7526 48.9825 61.9743 48.6524 62.1923 48.3301C62.3176 48.1448 62.4486 47.9539 62.639 47.8365C62.8293 47.7191 63.0969 47.6955 63.2655 47.8425V47.8425Z" fill="#00160A"/>
<path fill-rule="evenodd" clip-rule="evenodd" d="M111.703 34.9999C111.235 35.6095 110.767 36.2192 110.299 36.8289C110.046 37.158 109.551 37.5038 109.282 37.1879C108.811 36.6347 107.94 36.7906 107.229 36.6434C106.768 36.5481 106.351 36.3105 105.943 36.0764C100.042 32.6914 94.1414 29.3065 88.2406 25.9216C87.7743 25.6541 87.2693 25.3396 87.1147 24.8248C93.4268 28.2112 99.6332 31.7947 105.722 35.5683C106.469 36.0312 107.498 36.4791 108.144 35.8835C108.33 35.7125 108.444 35.4799 108.554 35.2529C109.122 34.0828 109.689 32.9127 110.257 31.7426C103.883 27.6433 96.9254 24.4473 90.8719 19.8876C90.7506 19.7963 90.6206 19.6897 90.5963 19.5399C90.5719 19.3901 90.7361 19.2188 90.866 19.2973C92.2813 20.3172 93.7222 21.3015 95.1868 22.2492C99.8333 25.2556 104.71 27.8873 109.454 30.7369C109.916 31.0142 110.422 31.3583 110.508 31.8899C110.574 32.2993 110.367 32.6978 110.166 33.0606C109.753 33.807 109.339 34.5535 108.926 35.2999C108.78 35.5628 108.63 35.8581 108.701 36.1502C108.811 36.6066 109.427 36.7723 109.858 36.5853C110.288 36.3984 110.57 35.9851 110.827 35.5925C111.063 35.2334 111.298 34.8743 111.534 34.5153C111.723 34.227 111.293 33.9427 110.965 33.836C110.637 33.7292 110.274 33.3131 110.558 33.1168C110.71 33.0111 110.917 33.1061 111.076 33.2013C111.558 33.4893 112.111 33.9277 111.994 34.4766C111.952 34.6735 111.826 34.8403 111.703 34.9999Z" fill="#00160A"/>
<path fill-rule="evenodd" clip-rule="evenodd" d="M60.4518 42.1308C60.5501 42.1871 60.6555 42.2516 60.6953 42.3577C60.735 42.4638 60.659 42.6137 60.5469 42.5973C59.5078 41.9997 58.4688 41.4022 57.4297 40.8046C57.4485 40.6864 57.5802 40.6136 57.6998 40.6181C57.8195 40.6226 57.9287 40.6837 58.0325 40.7433C58.8389 41.2058 59.6454 41.6683 60.4518 42.1308Z" fill="#00160A"/>
<path fill-rule="evenodd" clip-rule="evenodd" d="M45.6126 36.3239C45.3942 35.7618 45.7125 35.1402 46.0687 34.6535C46.6116 33.9113 47.2686 33.2526 48.0093 32.7077C48.1937 32.5721 48.4763 32.4522 48.6249 32.6263C48.8049 32.8372 48.5302 33.1255 48.3012 33.2817C47.3342 33.9414 46.6602 34.939 46.0026 35.9073C45.8947 36.0662 45.7805 36.2306 45.6126 36.3239L45.6126 36.3239Z" fill="#FFB61D"/>
<path fill-rule="evenodd" clip-rule="evenodd" d="M100.764 121.313C100.054 121.819 99.3435 122.324 98.6333 122.829C98.3755 123.013 98.0599 123.205 97.763 123.096C96.7026 122.704 95.9601 121.732 95.4669 120.715C95.2738 120.317 95.107 119.862 95.2428 119.441C95.311 119.23 95.4495 119.05 95.5854 118.874C96.0054 118.332 96.5016 117.746 97.1836 117.675C97.4861 117.644 97.79 117.721 98.0743 117.829C98.972 118.17 99.7468 118.825 100.232 119.653C100.044 119.581 99.8439 119.538 99.6424 119.525C99.1466 118.719 98.2489 118.174 97.3047 118.106C97.5579 118.696 97.8696 119.26 98.2337 119.789C98.5641 120.268 98.9738 120.743 99.5345 120.901C99.9599 121.02 100.485 120.971 100.764 121.313ZM97.1656 122.057C97.5105 122.34 97.9545 122.578 98.3877 122.47C98.991 122.32 99.3046 121.574 99.911 121.437C99.1025 121.346 98.3901 120.831 97.8848 120.193C97.3796 119.555 97.0516 118.799 96.7294 118.052C96.6847 118.763 95.7652 119.219 95.8075 119.931C95.8153 120.062 95.8573 120.189 95.9045 120.311C96.1657 120.989 96.6047 121.596 97.1656 122.057H97.1656Z" fill="#00160A"/>
<path fill-rule="evenodd" clip-rule="evenodd" d="M56.5297 42.0476C56.6905 41.9522 56.8938 42.0423 57.0568 42.1339C57.5571 42.4151 58.0478 42.7136 58.5275 43.0286C58.6223 43.0908 58.73 43.1912 58.6889 43.2969C58.6362 43.4323 58.4338 43.3816 58.3088 43.3077C57.8078 43.0118 57.3068 42.7158 56.8058 42.4199C56.6637 42.3359 56.5008 42.2101 56.5297 42.0476L56.5297 42.0476Z" fill="#00160A"/>
<path fill-rule="evenodd" clip-rule="evenodd" d="M46.7442 37.7941C47.0385 36.9648 47.4948 36.1934 48.0799 35.5361C48.2853 35.3054 48.506 35.089 48.7265 34.8728C49.0469 34.5586 49.3673 34.2445 49.6877 33.9303C49.7768 33.8429 49.8816 33.7492 50.0063 33.7557C50.1651 33.7639 50.2712 33.9425 50.2586 34.1011C50.2459 34.2597 50.1493 34.3978 50.0518 34.5235C49.5542 35.1649 48.9458 35.7109 48.407 36.3182C47.8683 36.9255 47.3882 37.62 47.2252 38.4153C47.1816 38.6284 46.8299 38.613 46.7205 38.4249C46.6112 38.2369 46.6714 37.9991 46.7442 37.7941Z" fill="#FFB61D"/>
<path fill-rule="evenodd" clip-rule="evenodd" d="M106.381 138.047C106.547 137.328 106.895 136.652 107.383 136.099C107.597 136.376 107.351 136.757 107.168 137.055C107.02 137.296 106.912 137.562 106.849 137.837C106.83 137.918 106.815 138.004 106.837 138.084C106.856 138.152 106.899 138.21 106.941 138.266C107.663 139.23 108.491 140.264 109.672 140.5C109.905 140.547 110.144 140.423 110.301 140.246C110.458 140.069 110.548 139.843 110.635 139.623C109.196 139.051 108.087 137.717 107.788 136.198C107.776 136.137 107.765 136.072 107.788 136.013C107.819 135.933 107.903 135.887 107.984 135.854C108.554 135.619 109.231 135.657 109.772 135.956C109.981 136.071 110.169 136.223 110.355 136.373C110.644 136.606 110.933 136.838 111.221 137.071C111.696 137.454 112.22 137.946 112.154 138.553C112.118 138.887 111.905 139.171 111.7 139.436C111.253 140.016 110.806 140.596 110.358 141.175C108.793 140.972 107.338 140.041 106.496 138.706C106.433 138.605 106.371 138.499 106.352 138.381C106.334 138.27 106.356 138.156 106.381 138.047ZM109.736 136.536C109.244 136.252 108.66 136.13 108.095 136.193C108.52 137.343 109.353 138.337 110.411 138.956C110.67 139.107 110.987 139.239 111.262 139.119C111.616 138.965 111.698 138.493 111.984 138.234C111.431 137.806 110.879 137.379 110.326 136.951C110.136 136.804 109.945 136.657 109.736 136.536Z" fill="#00160A"/>
<path fill-rule="evenodd" clip-rule="evenodd" d="M91.1615 111.346C91.9142 110.899 92.9221 111.287 93.516 111.929C94.11 112.572 94.4245 113.417 94.864 114.174C94.7805 114.208 94.697 114.242 94.6135 114.276C94.1931 113.153 93.461 112.149 92.5205 111.405C92.3666 111.283 92.0782 111.206 92.0276 111.396C92.0131 111.45 92.0295 111.507 92.0458 111.561C92.1404 111.875 92.2351 112.188 92.3297 112.501C92.3878 112.694 92.4463 112.887 92.5337 113.068C92.8523 113.728 93.5087 114.146 94.1329 114.53C94.2768 114.618 94.1859 114.849 94.0497 114.949C93.9134 115.049 93.731 115.124 93.6899 115.288C93.6344 114.618 92.8957 114.255 92.4954 113.715C92.3497 113.518 92.2477 113.293 92.1469 113.07C91.9335 112.598 91.7202 112.126 91.5068 111.654C91.2433 111.908 90.9797 112.162 90.7161 112.415C90.5938 112.533 90.4677 112.656 90.4095 112.816C90.327 113.041 90.3968 113.293 90.4884 113.515C90.6592 113.93 90.9058 114.313 91.2124 114.64C91.3996 114.839 91.611 115.021 91.7548 115.254C91.8987 115.487 91.9647 115.792 91.8365 116.034C91.1359 115.453 90.545 114.741 90.1039 113.945C89.9316 113.634 89.7785 113.294 89.7952 112.939C89.8296 112.209 90.5328 111.719 91.1615 111.346V111.346Z" fill="#00160A"/>
<path fill-rule="evenodd" clip-rule="evenodd" d="M35.1913 132.721C34.297 134.011 33.2579 135.321 31.782 135.855C30.3061 136.389 28.3156 135.776 27.9157 134.258C27.247 131.72 30.9326 130.423 32.3095 128.189C33.9437 125.537 31.9847 122.188 30.0599 119.739C28.694 120.881 26.7045 122.055 25.2978 120.964C23.5943 119.642 25.0277 116.881 26.7649 115.604C29.8806 113.315 33.8651 112.239 37.7096 112.651C38.6883 105.361 42.433 98.477 48.021 93.6947C53.609 88.9124 60.9888 86.2759 68.3421 86.4348C67.5201 72.1773 75.7862 57.7988 88.5208 51.3349C89.9032 50.6332 91.3832 50.0069 92.9335 50.0162C94.4837 50.0255 96.1205 50.8146 96.7088 52.2489C97.2971 53.6832 96.3849 55.6516 94.8402 55.7826C88.892 56.2871 83.2429 59.6009 79.9 64.5466C87.8116 63.9375 95.2975 67.8158 102.283 71.5808C105.129 73.115 107.975 74.6492 110.822 76.1834C113.585 77.673 116.651 79.2113 119.723 78.5614C125.403 77.3593 127.133 69.9175 131.888 66.5856C132.5 66.1567 133.228 65.7862 133.965 65.9128C135.885 66.2428 135.75 69.078 134.924 70.8424C129.999 81.3666 118.963 87.989 107.619 90.5043C96.2744 93.0196 84.483 92.0254 72.9069 91.0185C72.106 99.2976 70.9747 108.301 65.0513 114.14C59.4198 119.692 50.5123 120.913 42.8885 118.812C46.9442 119.111 51.0518 119.341 55.0525 118.611C59.0531 117.881 62.9901 116.096 65.5898 112.968C67.1459 111.096 68.1573 108.836 69.0068 106.554C70.8432 101.623 72.0118 96.4432 72.4709 91.201C71.0542 91.297 69.6376 91.3931 68.2209 91.4891C68.5798 98.4703 66.8414 105.851 62.0378 110.929C57.2343 116.008 48.9782 118.08 42.9537 114.535C41.6313 121.039 38.9727 127.267 35.1913 132.721ZM50.6108 115.694C52.9528 115.328 55.2425 114.629 57.3894 113.624C56.0593 112.562 54.775 111.42 53.7621 110.053C51.6049 107.141 50.7878 103.367 48.4383 100.608C45.6169 104.52 43.7676 109.129 43.1014 113.906C43.0864 114.014 43.074 114.132 43.1322 114.224C43.1927 114.319 43.3107 114.357 43.4192 114.388C45.2145 114.897 47.0393 115.302 48.8814 115.601C47.8597 114.49 46.8304 113.368 46.0532 112.074C45.276 110.78 44.759 109.284 44.8602 107.777C45.8175 110.284 47.1867 112.634 48.8961 114.702C49.3371 115.236 49.9268 115.8 50.6108 115.694ZM135.361 68.6819C135.892 67.3728 134.084 66.1226 132.734 66.5395C131.385 66.9563 130.548 68.2609 129.762 69.4341C125.35 76.0132 118.92 81.2193 111.568 84.1662C100.242 88.7053 87.5868 87.8012 75.3957 87.3037C69.6637 87.0698 63.8138 86.956 58.3166 88.5968C50.3128 90.9858 43.5521 97.2195 40.523 105.004C38.7741 109.498 38.2361 114.358 37.0397 119.03C35.8434 123.702 33.8006 128.436 29.9067 131.282C29.2003 131.798 28.3814 132.328 28.185 133.181C27.893 134.448 29.3031 135.599 30.601 135.515C31.8989 135.432 32.9881 134.527 33.8788 133.579C42.933 123.945 40.8555 107.285 50.2024 97.9352C54.6096 93.5266 60.9378 91.5192 67.1472 90.9687C73.3566 90.4183 79.5965 91.1688 85.8224 91.4817C95.5213 91.9691 105.452 91.3524 114.512 87.8555C123.572 84.3586 131.716 77.6828 135.361 68.6819ZM76.7647 71.3451C76.5646 71.4667 76.4448 71.6829 76.3365 71.8905C74.0495 76.2775 72.9188 81.2607 73.0883 86.2051C72.8429 86.1935 72.7469 85.885 72.7212 85.6407C72.1174 79.8823 74.5111 74.2795 76.8526 68.9841C77.5619 67.38 78.2764 65.7664 79.2551 64.3109C81.0786 61.599 83.7312 59.5618 86.4331 57.7235C87.3325 57.1116 88.2557 56.5096 89.2861 56.1609C89.9716 55.9289 90.6902 55.8141 91.4049 55.7002C92.2948 55.5585 93.1847 55.4167 94.0746 55.275C94.9986 55.1278 96.0569 54.8871 96.4782 54.0516C97.0698 52.8781 95.8782 51.5114 94.6126 51.1573C93.0164 50.7106 91.3155 51.1681 89.754 51.7241C87.361 52.5763 85.0388 53.6737 82.9904 55.1758C81.3557 56.3745 79.9127 57.8178 78.5885 59.3526C72.3421 66.5923 68.7103 76.0412 68.4996 85.6008C68.4947 85.8187 68.4939 86.0469 68.5936 86.2407C68.8326 86.7051 69.4754 86.7291 69.9967 86.6964C73.7176 86.4628 77.462 86.6059 81.1542 87.123C79.3513 85.4219 77.5185 83.6991 75.3232 82.5481C74.6281 82.1837 73.8552 81.8376 73.4723 81.1525C74.9815 81.396 76.4234 82.0451 77.6063 83.0135C78.5592 83.7937 79.3368 84.767 80.2639 85.5777C81.191 86.3885 82.342 87.0523 83.573 87.0137C87.0244 86.9052 90.4812 86.9673 93.9265 87.1997C91.1777 85.3705 88.9118 82.9189 86.4259 80.746C83.9399 78.573 81.09 76.6144 77.8285 76.1C76.9182 75.9565 75.7731 75.7555 75.5451 74.8626C78.9886 75.0462 82.2167 76.6533 84.9994 78.6899C87.7821 80.7265 90.2101 83.2016 92.8303 85.4433C93.766 86.2438 94.8759 87.0613 96.0985 86.9145C99.9288 86.4545 103.788 85.9881 107.454 84.7855C98.5367 81.6158 91.4944 74.0254 82.2587 71.9597C80.7311 71.618 79.1728 71.4367 77.6179 71.2559C77.3283 71.2222 77.0138 71.1936 76.7647 71.3451ZM111.892 77.4013C110.876 76.9088 109.86 76.4163 108.844 75.9238C107.393 75.2204 105.942 74.5169 104.512 73.7715C101.182 72.036 97.9688 70.0749 94.5788 68.4594C91.1888 66.8438 87.5774 65.5685 83.8305 65.3176C82.8775 65.2537 81.9091 65.2547 80.9886 64.9994C80.4127 64.8397 79.7862 65.1081 79.3615 65.5287C78.9369 65.9492 78.674 66.502 78.4195 67.0428C77.8522 68.2483 77.2848 69.4538 76.7175 70.6593C81.0894 70.2513 85.3899 71.8882 89.3192 73.8479C93.0415 75.7044 96.6003 77.8745 100.062 80.1801C101.634 81.2265 103.197 82.3076 104.925 83.067C106.654 83.8264 108.583 84.2518 110.44 83.9161C113.624 83.3407 116.025 80.6958 119.051 79.5527C116.535 79.6231 114.158 78.4995 111.892 77.4013ZM54.4485 95.5961C55.4005 97.9496 56.7501 100.163 58.555 101.948C60.3599 103.734 62.6345 105.078 65.1178 105.606C65.696 103.491 66.2494 101.368 66.7777 99.2392C66.8278 99.0374 66.85 98.7696 66.6646 98.6753C64.0112 97.326 61.6232 95.457 59.6758 93.2054C59.6926 92.9716 59.9733 92.8322 60.2036 92.8758C60.4339 92.9194 60.6184 93.0863 60.7889 93.2472C62.6878 95.0389 64.5557 96.9908 66.9791 97.9617C67.5295 96.1536 67.9041 94.2921 68.096 92.4119C68.1313 92.0659 68.0463 91.5834 67.6985 91.5821C60.8394 91.5565 54.0151 94.4123 49.2186 99.3155C48.886 99.6554 48.8664 100.209 49.034 100.654C49.2016 101.099 49.5218 101.466 49.8178 101.838C51.2608 103.652 52.2386 105.783 53.3786 107.801C54.5186 109.82 55.889 111.799 57.8549 113.027C58.0575 113.154 58.2821 113.276 58.5204 113.258C58.7163 113.243 58.8914 113.135 59.0557 113.027C61.4002 111.49 63.3592 109.37 64.7065 106.911C64.8526 106.645 64.9196 106.2 64.6226 106.136C62.8198 105.745 61.1082 104.94 59.657 103.801C58.5361 102.921 57.5787 101.854 56.6275 100.793C56.0457 100.144 55.4601 99.4905 55.0109 98.7436C54.4705 97.8452 54.1387 96.8224 54.0488 95.7779C54.182 95.7173 54.3153 95.6567 54.4485 95.5961ZM26.2691 120.853C27.2427 121.056 28.1676 120.395 28.9256 119.751C29.8049 119.005 30.6664 118.223 31.6657 117.647C32.665 117.071 33.8343 116.71 34.9736 116.89C35.3603 116.951 35.7439 117.073 36.1343 117.044C36.5248 117.015 36.9396 116.777 37.0071 116.391C37.1675 115.476 37.2939 114.554 37.3859 113.629C37.3991 113.497 37.4066 113.348 37.3199 113.248C37.2359 113.151 37.094 113.134 36.9659 113.126C32.8988 112.863 28.7482 114.452 25.8951 117.362C25.4626 117.803 25.0421 118.307 24.9414 118.917C24.8005 119.77 25.4227 120.677 26.2691 120.853ZM34.4752 118.162C35.0217 118.792 35.5682 119.422 36.1147 120.052C36.2584 119.279 36.4858 118.521 36.7917 117.797C35.1609 117.111 33.1848 117.322 31.7353 118.336C31.4198 118.557 31.1298 118.811 30.8404 119.065C30.7256 119.166 30.606 119.274 30.5572 119.418C30.5084 119.563 30.5617 119.754 30.7067 119.802C31.2459 119.981 31.6285 120.456 31.9369 120.933C32.9491 122.499 33.5044 124.356 33.5177 126.221C34.2934 124.589 35.0692 122.957 35.845 121.325C35.537 121.238 35.4578 120.851 35.3807 120.541C35.1069 119.439 34.2232 118.61 33.381 117.849C33.5125 117.673 33.7792 117.651 33.9801 117.738C34.1811 117.826 34.3316 117.997 34.4752 118.162Z" fill="#00160A"/>
</svg>
